<svg width="225" height="39" viewBox="0 0 225 39" fill="none" xmlns="http://www.w3.org/2000/svg">
<path d="M6.552 9.26436V27.5944H1.456V9.26436H6.552ZM15.356 12.8264C16.344 12.8264 17.202 13.0257 17.93 13.4244C18.6754 13.823 19.2474 14.3604 19.646 15.0364V13.0084H24.742V27.4384C24.742 28.8077 24.482 30.0384 23.962 31.1304C23.442 32.2397 22.6274 33.1237 21.518 33.7824C20.426 34.441 19.0394 34.7704 17.358 34.7704C15.1047 34.7704 13.302 34.2417 11.95 33.1844C10.598 32.127 9.82671 30.6884 9.63605 28.8684H14.654C14.758 29.3364 15.018 29.7004 15.434 29.9604C15.85 30.2204 16.3874 30.3504 17.046 30.3504C18.7794 30.3504 19.646 29.3797 19.646 27.4384V25.5664C19.2474 26.2424 18.6754 26.7797 17.93 27.1784C17.202 27.577 16.344 27.7764 15.356 27.7764C14.1947 27.7764 13.1374 27.473 12.184 26.8664C11.248 26.2597 10.5027 25.393 9.94805 24.2664C9.41071 23.1224 9.14205 21.7964 9.14205 20.2884C9.14205 18.7804 9.41071 17.463 9.94805 16.3364C10.5027 15.2097 11.248 14.343 12.184 13.7364C13.1374 13.1297 14.1947 12.8264 15.356 12.8264ZM19.646 20.2884C19.646 19.3524 19.386 18.6157 18.866 18.0784C18.3634 17.541 17.7394 17.2724 16.994 17.2724C16.2314 17.2724 15.5987 17.541 15.096 18.0784C14.5934 18.5984 14.342 19.335 14.342 20.2884C14.342 21.2244 14.5934 21.9697 15.096 22.5244C15.5987 23.0617 16.2314 23.3304 16.994 23.3304C17.7394 23.3304 18.3634 23.0617 18.866 22.5244C19.386 21.987 19.646 21.2417 19.646 20.2884ZM37.7079 12.8784C39.3893 12.8784 40.7239 13.4417 41.7119 14.5684C42.6999 15.6777 43.1939 17.1857 43.1939 19.0924V27.5944H38.0979V19.7684C38.0979 18.9364 37.8813 18.2864 37.4479 17.8184C37.0146 17.333 36.4339 17.0904 35.7059 17.0904C34.9433 17.0904 34.3453 17.333 33.9119 17.8184C33.4786 18.2864 33.2619 18.9364 33.2619 19.7684V27.5944H28.1659V13.0084H33.2619V15.0884C33.7126 14.4297 34.3193 13.901 35.0819 13.5024C35.8446 13.0864 36.7199 12.8784 37.7079 12.8784ZM49.0841 11.6564C48.1828 11.6564 47.4548 11.4137 46.9001 10.9284C46.3628 10.4257 46.0941 9.80169 46.0941 9.05636C46.0941 8.29369 46.3628 7.66103 46.9001 7.15836C47.4548 6.65569 48.1828 6.40436 49.0841 6.40436C49.9681 6.40436 50.6788 6.65569 51.2161 7.15836C51.7708 7.66103 52.0481 8.29369 52.0481 9.05636C52.0481 9.80169 51.7708 10.4257 51.2161 10.9284C50.6788 11.4137 49.9681 11.6564 49.0841 11.6564ZM51.6061 13.0084V27.5944H46.5101V13.0084H51.6061ZM63.6342 23.2524V27.5944H61.4242C57.6975 27.5944 55.8342 25.7484 55.8342 22.0564V17.2464H54.0402V13.0084H55.8342V9.47236H60.9562V13.0084H63.6082V17.2464H60.9562V22.1344C60.9562 22.533 61.0429 22.819 61.2162 22.9924C61.4069 23.1657 61.7189 23.2524 62.1522 23.2524H63.6342ZM65.6595 20.2884C65.6595 18.7804 65.9282 17.463 66.4655 16.3364C67.0202 15.2097 67.7655 14.343 68.7015 13.7364C69.6549 13.1297 70.7122 12.8264 71.8735 12.8264C72.8789 12.8264 73.7455 13.0257 74.4735 13.4244C75.2015 13.823 75.7649 14.3604 76.1635 15.0364V13.0084H81.2595V27.5944H76.1635V25.5664C75.7649 26.2424 75.1929 26.7797 74.4475 27.1784C73.7195 27.577 72.8615 27.7764 71.8735 27.7764C70.7122 27.7764 69.6549 27.473 68.7015 26.8664C67.7655 26.2597 67.0202 25.393 66.4655 24.2664C65.9282 23.1224 65.6595 21.7964 65.6595 20.2884ZM76.1635 20.2884C76.1635 19.3524 75.9035 18.6157 75.3835 18.0784C74.8809 17.541 74.2569 17.2724 73.5115 17.2724C72.7489 17.2724 72.1162 17.541 71.6135 18.0784C71.1109 18.5984 70.8595 19.335 70.8595 20.2884C70.8595 21.2244 71.1109 21.9697 71.6135 22.5244C72.1162 23.0617 72.7489 23.3304 73.5115 23.3304C74.2569 23.3304 74.8809 23.0617 75.3835 22.5244C75.9035 21.987 76.1635 21.2417 76.1635 20.2884ZM89.7794 15.0364C90.1781 14.343 90.7414 13.8057 91.4694 13.4244C92.1974 13.0257 93.0554 12.8264 94.0434 12.8264C95.2048 12.8264 96.2534 13.1297 97.1894 13.7364C98.1428 14.343 98.8881 15.2097 99.4254 16.3364C99.9801 17.463 100.257 18.7804 100.257 20.2884C100.257 21.7964 99.9801 23.1224 99.4254 24.2664C98.8881 25.393 98.1428 26.2597 97.1894 26.8664C96.2534 27.473 95.2048 27.7764 94.0434 27.7764C93.0554 27.7764 92.1974 27.5857 91.4694 27.2044C90.7414 26.8057 90.1781 26.2597 89.7794 25.5664V27.5944H84.6834V8.35436H89.7794V15.0364ZM95.0834 20.2884C95.0834 19.335 94.8234 18.5984 94.3034 18.0784C93.8008 17.541 93.1768 17.2724 92.4314 17.2724C91.6861 17.2724 91.0534 17.541 90.5334 18.0784C90.0308 18.6157 89.7794 19.3524 89.7794 20.2884C89.7794 21.2417 90.0308 21.987 90.5334 22.5244C91.0534 23.0617 91.6861 23.3304 92.4314 23.3304C93.1768 23.3304 93.8008 23.0617 94.3034 22.5244C94.8234 21.9697 95.0834 21.2244 95.0834 20.2884ZM107.971 8.35436V27.5944H102.875V8.35436H107.971ZM125.329 20.1324C125.329 20.531 125.303 20.9297 125.251 21.3284H115.605C115.657 22.1257 115.874 22.7237 116.255 23.1224C116.654 23.5037 117.157 23.6944 117.763 23.6944C118.613 23.6944 119.219 23.313 119.583 22.5504H125.017C124.792 23.5557 124.35 24.457 123.691 25.2544C123.05 26.0344 122.235 26.6497 121.247 27.1004C120.259 27.551 119.167 27.7764 117.971 27.7764C116.533 27.7764 115.25 27.473 114.123 26.8664C113.014 26.2597 112.139 25.393 111.497 24.2664C110.873 23.1397 110.561 21.8137 110.561 20.2884C110.561 18.763 110.873 17.4457 111.497 16.3364C112.121 15.2097 112.988 14.343 114.097 13.7364C115.224 13.1297 116.515 12.8264 117.971 12.8264C119.41 12.8264 120.684 13.121 121.793 13.7104C122.903 14.2997 123.769 15.149 124.393 16.2584C125.017 17.3504 125.329 18.6417 125.329 20.1324ZM120.129 18.8584C120.129 18.2344 119.921 17.749 119.505 17.4024C119.089 17.0384 118.569 16.8564 117.945 16.8564C117.321 16.8564 116.81 17.0297 116.411 17.3764C116.013 17.7057 115.753 18.1997 115.631 18.8584H120.129Z" fill="black"/>
<path d="M145.252 14.7022C144.748 14.7022 144.296 14.6182 143.896 14.4502C143.496 14.2742 143.18 14.0342 142.948 13.7302C142.716 13.4182 142.588 13.0622 142.564 12.6622H143.692C143.724 12.9902 143.876 13.2582 144.148 13.4662C144.428 13.6742 144.792 13.7782 145.24 13.7782C145.656 13.7782 145.984 13.6862 146.224 13.5022C146.464 13.3182 146.584 13.0862 146.584 12.8062C146.584 12.5182 146.456 12.3062 146.2 12.1702C145.944 12.0262 145.548 11.8862 145.012 11.7502C144.524 11.6222 144.124 11.4942 143.812 11.3662C143.508 11.2302 143.244 11.0342 143.02 10.7782C142.804 10.5142 142.696 10.1702 142.696 9.74624C142.696 9.41024 142.796 9.10224 142.996 8.82224C143.196 8.54224 143.48 8.32224 143.848 8.16224C144.216 7.99424 144.636 7.91024 145.108 7.91024C145.836 7.91024 146.424 8.09424 146.872 8.46224C147.32 8.83024 147.56 9.33424 147.592 9.97424H146.5C146.476 9.63024 146.336 9.35424 146.08 9.14624C145.832 8.93824 145.496 8.83424 145.072 8.83424C144.68 8.83424 144.368 8.91824 144.136 9.08624C143.904 9.25424 143.788 9.47424 143.788 9.74624C143.788 9.96224 143.856 10.1422 143.992 10.2862C144.136 10.4222 144.312 10.5342 144.52 10.6222C144.736 10.7022 145.032 10.7942 145.408 10.8982C145.88 11.0262 146.264 11.1542 146.56 11.2822C146.856 11.4022 147.108 11.5862 147.316 11.8342C147.532 12.0822 147.644 12.4062 147.652 12.8062C147.652 13.1662 147.552 13.4902 147.352 13.7782C147.152 14.0662 146.868 14.2942 146.5 14.4622C146.14 14.6222 145.724 14.7022 145.252 14.7022ZM152.302 14.7022C151.686 14.7022 151.126 14.5622 150.622 14.2822C150.126 14.0022 149.734 13.6062 149.446 13.0942C149.166 12.5742 149.026 11.9742 149.026 11.2942C149.026 10.6222 149.17 10.0302 149.458 9.51824C149.754 8.99824 150.154 8.60224 150.658 8.33024C151.162 8.05024 151.726 7.91024 152.35 7.91024C152.974 7.91024 153.538 8.05024 154.042 8.33024C154.546 8.60224 154.942 8.99424 155.23 9.50624C155.526 10.0182 155.674 10.6142 155.674 11.2942C155.674 11.9742 155.522 12.5742 155.218 13.0942C154.922 13.6062 154.518 14.0022 154.006 14.2822C153.494 14.5622 152.926 14.7022 152.302 14.7022ZM152.302 13.7422C152.694 13.7422 153.062 13.6502 153.406 13.4662C153.75 13.2822 154.026 13.0062 154.234 12.6382C154.45 12.2702 154.558 11.8222 154.558 11.2942C154.558 10.7662 154.454 10.3182 154.246 9.95024C154.038 9.58224 153.766 9.31024 153.43 9.13424C153.094 8.95024 152.73 8.85824 152.338 8.85824C151.938 8.85824 151.57 8.95024 151.234 9.13424C150.906 9.31024 150.642 9.58224 150.442 9.95024C150.242 10.3182 150.142 10.7662 150.142 11.2942C150.142 11.8302 150.238 12.2822 150.43 12.6502C150.63 13.0182 150.894 13.2942 151.222 13.4782C151.55 13.6542 151.91 13.7422 152.302 13.7422ZM160.025 8.91824H158.645V14.5942H157.553V8.91824H156.701V8.01824H157.553V7.55024C157.553 6.81424 157.741 6.27824 158.117 5.94224C158.501 5.59824 159.113 5.42624 159.953 5.42624V6.33824C159.473 6.33824 159.133 6.43424 158.933 6.62624C158.741 6.81024 158.645 7.11824 158.645 7.55024V8.01824H160.025V8.91824ZM162.871 8.91824V12.7942C162.871 13.1142 162.939 13.3422 163.075 13.4782C163.211 13.6062 163.447 13.6702 163.783 13.6702H164.587V14.5942H163.603C162.995 14.5942 162.539 14.4542 162.235 14.1742C161.931 13.8942 161.779 13.4342 161.779 12.7942V8.91824H160.927V8.01824H161.779V6.36224H162.871V8.01824H164.587V8.91824H162.871ZM174.91 8.01824L172.858 14.5942H171.73L170.146 9.37424L168.562 14.5942H167.434L165.37 8.01824H166.486L167.998 13.5382L169.63 8.01824H170.746L172.342 13.5502L173.83 8.01824H174.91ZM175.825 11.2822C175.825 10.6102 175.961 10.0222 176.233 9.51824C176.505 9.00624 176.877 8.61024 177.349 8.33024C177.829 8.05024 178.361 7.91024 178.945 7.91024C179.521 7.91024 180.021 8.03424 180.445 8.28224C180.869 8.53024 181.185 8.84224 181.393 9.21824V8.01824H182.497V14.5942H181.393V13.3702C181.177 13.7542 180.853 14.0742 180.421 14.3302C179.997 14.5782 179.501 14.7022 178.933 14.7022C178.349 14.7022 177.821 14.5582 177.349 14.2702C176.877 13.9822 176.505 13.5782 176.233 13.0582C175.961 12.5382 175.825 11.9462 175.825 11.2822ZM181.393 11.2942C181.393 10.7982 181.293 10.3662 181.093 9.99824C180.893 9.63024 180.621 9.35024 180.277 9.15824C179.941 8.95824 179.569 8.85824 179.161 8.85824C178.753 8.85824 178.381 8.95424 178.045 9.14624C177.709 9.33824 177.441 9.61824 177.241 9.98624C177.041 10.3542 176.941 10.7862 176.941 11.2822C176.941 11.7862 177.041 12.2262 177.241 12.6022C177.441 12.9702 177.709 13.2542 178.045 13.4542C178.381 13.6462 178.753 13.7422 179.161 13.7422C179.569 13.7422 179.941 13.6462 180.277 13.4542C180.621 13.2542 180.893 12.9702 181.093 12.6022C181.293 12.2262 181.393 11.7902 181.393 11.2942ZM185.675 9.08624C185.867 8.71024 186.139 8.41824 186.491 8.21024C186.851 8.00224 187.287 7.89824 187.799 7.89824V9.02624H187.511C186.287 9.02624 185.675 9.69024 185.675 11.0182V14.5942H184.583V8.01824H185.675V9.08624ZM195.299 11.0542C195.299 11.2622 195.287 11.4822 195.263 11.7142H190.007C190.047 12.3622 190.267 12.8702 190.667 13.2382C191.075 13.5982 191.567 13.7782 192.143 13.7782C192.615 13.7782 193.007 13.6702 193.319 13.4542C193.639 13.2302 193.863 12.9342 193.991 12.5662H195.167C194.991 13.1982 194.639 13.7142 194.111 14.1142C193.583 14.5062 192.927 14.7022 192.143 14.7022C191.519 14.7022 190.959 14.5622 190.463 14.2822C189.975 14.0022 189.591 13.6062 189.311 13.0942C189.031 12.5742 188.891 11.9742 188.891 11.2942C188.891 10.6142 189.027 10.0182 189.299 9.50624C189.571 8.99424 189.951 8.60224 190.439 8.33024C190.935 8.05024 191.503 7.91024 192.143 7.91024C192.767 7.91024 193.319 8.04624 193.799 8.31824C194.279 8.59024 194.647 8.96624 194.903 9.44624C195.167 9.91824 195.299 10.4542 195.299 11.0542ZM194.171 10.8262C194.171 10.4102 194.079 10.0542 193.895 9.75824C193.711 9.45424 193.459 9.22624 193.139 9.07424C192.827 8.91424 192.479 8.83424 192.095 8.83424C191.543 8.83424 191.071 9.01024 190.679 9.36224C190.295 9.71424 190.075 10.2022 190.019 10.8262H194.171Z" fill="black"/>
<path d="M142.516 27.2822C142.516 26.6102 142.652 26.0222 142.924 25.5182C143.196 25.0062 143.568 24.6102 144.04 24.3302C144.52 24.0502 145.056 23.9102 145.648 23.9102C146.16 23.9102 146.636 24.0302 147.076 24.2702C147.516 24.5022 147.852 24.8102 148.084 25.1942V21.7142H149.188V30.5942H148.084V29.3582C147.868 29.7502 147.548 30.0742 147.124 30.3302C146.7 30.5782 146.204 30.7022 145.636 30.7022C145.052 30.7022 144.52 30.5582 144.04 30.2702C143.568 29.9822 143.196 29.5782 142.924 29.0582C142.652 28.5382 142.516 27.9462 142.516 27.2822ZM148.084 27.2942C148.084 26.7982 147.984 26.3662 147.784 25.9982C147.584 25.6302 147.312 25.3502 146.968 25.1582C146.632 24.9582 146.26 24.8582 145.852 24.8582C145.444 24.8582 145.072 24.9542 144.736 25.1462C144.4 25.3382 144.132 25.6182 143.932 25.9862C143.732 26.3542 143.632 26.7862 143.632 27.2822C143.632 27.7862 143.732 28.2262 143.932 28.6022C144.132 28.9702 144.4 29.2542 144.736 29.4542C145.072 29.6462 145.444 29.7422 145.852 29.7422C146.26 29.7422 146.632 29.6462 146.968 29.4542C147.312 29.2542 147.584 28.9702 147.784 28.6022C147.984 28.2262 148.084 27.7902 148.084 27.2942ZM157.273 27.0542C157.273 27.2622 157.261 27.4822 157.237 27.7142H151.981C152.021 28.3622 152.241 28.8702 152.641 29.2382C153.049 29.5982 153.541 29.7782 154.117 29.7782C154.589 29.7782 154.981 29.6702 155.293 29.4542C155.613 29.2302 155.837 28.9342 155.965 28.5662H157.141C156.965 29.1982 156.613 29.7142 156.085 30.1142C155.557 30.5062 154.901 30.7022 154.117 30.7022C153.493 30.7022 152.933 30.5622 152.437 30.2822C151.949 30.0022 151.565 29.6062 151.285 29.0942C151.005 28.5742 150.865 27.9742 150.865 27.2942C150.865 26.6142 151.001 26.0182 151.273 25.5062C151.545 24.9942 151.925 24.6022 152.413 24.3302C152.909 24.0502 153.477 23.9102 154.117 23.9102C154.741 23.9102 155.293 24.0462 155.773 24.3182C156.253 24.5902 156.621 24.9662 156.877 25.4462C157.141 25.9182 157.273 26.4542 157.273 27.0542ZM156.145 26.8262C156.145 26.4102 156.053 26.0542 155.869 25.7582C155.685 25.4542 155.433 25.2262 155.113 25.0742C154.801 24.9142 154.453 24.8342 154.069 24.8342C153.517 24.8342 153.045 25.0102 152.653 25.3622C152.269 25.7142 152.049 26.2022 151.993 26.8262H156.145ZM161.403 29.5862L163.443 24.0182H164.607L162.027 30.5942H160.755L158.175 24.0182H159.351L161.403 29.5862ZM171.921 27.0542C171.921 27.2622 171.909 27.4822 171.885 27.7142H166.629C166.669 28.3622 166.889 28.8702 167.289 29.2382C167.697 29.5982 168.189 29.7782 168.765 29.7782C169.237 29.7782 169.629 29.6702 169.941 29.4542C170.261 29.2302 170.485 28.9342 170.613 28.5662H171.789C171.613 29.1982 171.261 29.7142 170.733 30.1142C170.205 30.5062 169.549 30.7022 168.765 30.7022C168.141 30.7022 167.581 30.5622 167.085 30.2822C166.597 30.0022 166.213 29.6062 165.933 29.0942C165.653 28.5742 165.513 27.9742 165.513 27.2942C165.513 26.6142 165.649 26.0182 165.921 25.5062C166.193 24.9942 166.573 24.6022 167.061 24.3302C167.557 24.0502 168.125 23.9102 168.765 23.9102C169.389 23.9102 169.941 24.0462 170.421 24.3182C170.901 24.5902 171.269 24.9662 171.525 25.4462C171.789 25.9182 171.921 26.4542 171.921 27.0542ZM170.793 26.8262C170.793 26.4102 170.701 26.0542 170.517 25.7582C170.333 25.4542 170.081 25.2262 169.761 25.0742C169.449 24.9142 169.101 24.8342 168.717 24.8342C168.165 24.8342 167.693 25.0102 167.301 25.3622C166.917 25.7142 166.697 26.2022 166.641 26.8262H170.793ZM174.695 21.7142V30.5942H173.603V21.7142H174.695ZM179.664 30.7022C179.048 30.7022 178.488 30.5622 177.984 30.2822C177.488 30.0022 177.096 29.6062 176.808 29.0942C176.528 28.5742 176.388 27.9742 176.388 27.2942C176.388 26.6222 176.532 26.0302 176.82 25.5182C177.116 24.9982 177.516 24.6022 178.02 24.3302C178.524 24.0502 179.088 23.9102 179.712 23.9102C180.336 23.9102 180.9 24.0502 181.404 24.3302C181.908 24.6022 182.304 24.9942 182.592 25.5062C182.888 26.0182 183.036 26.6142 183.036 27.2942C183.036 27.9742 182.884 28.5742 182.58 29.0942C182.284 29.6062 181.88 30.0022 181.368 30.2822C180.856 30.5622 180.288 30.7022 179.664 30.7022ZM179.664 29.7422C180.056 29.7422 180.424 29.6502 180.768 29.4662C181.112 29.2822 181.388 29.0062 181.596 28.6382C181.812 28.2702 181.92 27.8222 181.92 27.2942C181.92 26.7662 181.816 26.3182 181.608 25.9502C181.4 25.5822 181.128 25.3102 180.792 25.1342C180.456 24.9502 180.092 24.8582 179.7 24.8582C179.3 24.8582 178.932 24.9502 178.596 25.1342C178.268 25.3102 178.004 25.5822 177.804 25.9502C177.604 26.3182 177.504 26.7662 177.504 27.2942C177.504 27.8302 177.6 28.2822 177.792 28.6502C177.992 29.0182 178.256 29.2942 178.584 29.4782C178.912 29.6542 179.272 29.7422 179.664 29.7422ZM185.804 25.2302C186.02 24.8542 186.34 24.5422 186.764 24.2942C187.196 24.0382 187.696 23.9102 188.264 23.9102C188.848 23.9102 189.376 24.0502 189.848 24.3302C190.328 24.6102 190.704 25.0062 190.976 25.5182C191.248 26.0222 191.384 26.6102 191.384 27.2822C191.384 27.9462 191.248 28.5382 190.976 29.0582C190.704 29.5782 190.328 29.9822 189.848 30.2702C189.376 30.5582 188.848 30.7022 188.264 30.7022C187.704 30.7022 187.208 30.5782 186.776 30.3302C186.352 30.0742 186.028 29.7582 185.804 29.3822V33.7142H184.712V24.0182H185.804V25.2302ZM190.268 27.2822C190.268 26.7862 190.168 26.3542 189.968 25.9862C189.768 25.6182 189.496 25.3382 189.152 25.1462C188.816 24.9542 188.444 24.8582 188.036 24.8582C187.636 24.8582 187.264 24.9582 186.92 25.1582C186.584 25.3502 186.312 25.6342 186.104 26.0102C185.904 26.3782 185.804 26.8062 185.804 27.2942C185.804 27.7902 185.904 28.2262 186.104 28.6022C186.312 28.9702 186.584 29.2542 186.92 29.4542C187.264 29.6462 187.636 29.7422 188.036 29.7422C188.444 29.7422 188.816 29.6462 189.152 29.4542C189.496 29.2542 189.768 28.9702 189.968 28.6022C190.168 28.2262 190.268 27.7862 190.268 27.2822ZM200.969 23.8982C201.481 23.8982 201.937 24.0062 202.337 24.2222C202.737 24.4302 203.053 24.7462 203.285 25.1702C203.517 25.5942 203.633 26.1102 203.633 26.7182V30.5942H202.553V26.8742C202.553 26.2182 202.389 25.7182 202.061 25.3742C201.741 25.0222 201.305 24.8462 200.753 24.8462C200.185 24.8462 199.733 25.0302 199.397 25.3982C199.061 25.7582 198.893 26.2822 198.893 26.9702V30.5942H197.813V26.8742C197.813 26.2182 197.649 25.7182 197.321 25.3742C197.001 25.0222 196.565 24.8462 196.013 24.8462C195.445 24.8462 194.993 25.0302 194.657 25.3982C194.321 25.7582 194.153 26.2822 194.153 26.9702V30.5942H193.061V24.0182H194.153V24.9662C194.369 24.6222 194.657 24.3582 195.017 24.1742C195.385 23.9902 195.789 23.8982 196.229 23.8982C196.781 23.8982 197.269 24.0222 197.693 24.2702C198.117 24.5182 198.433 24.8822 198.641 25.3622C198.825 24.8982 199.129 24.5382 199.553 24.2822C199.977 24.0262 200.449 23.8982 200.969 23.8982ZM211.664 27.0542C211.664 27.2622 211.652 27.4822 211.628 27.7142H206.372C206.412 28.3622 206.632 28.8702 207.032 29.2382C207.44 29.5982 207.932 29.7782 208.508 29.7782C208.98 29.7782 209.372 29.6702 209.684 29.4542C210.004 29.2302 210.228 28.9342 210.356 28.5662H211.532C211.356 29.1982 211.004 29.7142 210.476 30.1142C209.948 30.5062 209.292 30.7022 208.508 30.7022C207.884 30.7022 207.324 30.5622 206.828 30.2822C206.34 30.0022 205.956 29.6062 205.676 29.0942C205.396 28.5742 205.256 27.9742 205.256 27.2942C205.256 26.6142 205.392 26.0182 205.664 25.5062C205.936 24.9942 206.316 24.6022 206.804 24.3302C207.3 24.0502 207.868 23.9102 208.508 23.9102C209.132 23.9102 209.684 24.0462 210.164 24.3182C210.644 24.5902 211.012 24.9662 211.268 25.4462C211.532 25.9182 211.664 26.4542 211.664 27.0542ZM210.536 26.8262C210.536 26.4102 210.444 26.0542 210.26 25.7582C210.076 25.4542 209.824 25.2262 209.504 25.0742C209.192 24.9142 208.844 24.8342 208.46 24.8342C207.908 24.8342 207.436 25.0102 207.044 25.3622C206.66 25.7142 206.44 26.2022 206.384 26.8262H210.536ZM216.55 23.8982C217.35 23.8982 217.998 24.1422 218.494 24.6302C218.99 25.1102 219.238 25.8062 219.238 26.7182V30.5942H218.158V26.8742C218.158 26.2182 217.994 25.7182 217.666 25.3742C217.338 25.0222 216.89 24.8462 216.322 24.8462C215.746 24.8462 215.286 25.0262 214.942 25.3862C214.606 25.7462 214.438 26.2702 214.438 26.9582V30.5942H213.346V24.0182H214.438V24.9542C214.654 24.6182 214.946 24.3582 215.314 24.1742C215.69 23.9902 216.102 23.8982 216.55 23.8982ZM222.594 24.9182V28.7942C222.594 29.1142 222.662 29.3422 222.798 29.4782C222.934 29.6062 223.17 29.6702 223.506 29.6702H224.31V30.5942H223.326C222.718 30.5942 222.262 30.4542 221.958 30.1742C221.654 29.8942 221.502 29.4342 221.502 28.7942V24.9182H220.65V24.0182H221.502V22.3622H222.594V24.0182H224.31V24.9182H222.594Z" fill="black"/>
<rect x="138" width="2" height="39" transform="rotate(15 138 0)" fill="#56AB2F"/>
</svg>
