<svg width="225" height="39" viewBox="0 0 225 39" fill="none" xmlns="http://www.w3.org/2000/svg">
<path d="M6.552 9.26473V27.5947H1.456V9.26473H6.552ZM15.356 12.8267C16.344 12.8267 17.202 13.0261 17.93 13.4247C18.6754 13.8234 19.2474 14.3607 19.646 15.0367V13.0087H24.742V27.4387C24.742 28.8081 24.482 30.0387 23.962 31.1307C23.442 32.2401 22.6274 33.1241 21.518 33.7827C20.426 34.4414 19.0394 34.7707 17.358 34.7707C15.1047 34.7707 13.302 34.2421 11.95 33.1847C10.598 32.1274 9.82671 30.6887 9.63605 28.8687H14.654C14.758 29.3367 15.018 29.7007 15.434 29.9607C15.85 30.2207 16.3874 30.3507 17.046 30.3507C18.7794 30.3507 19.646 29.3801 19.646 27.4387V25.5667C19.2474 26.2427 18.6754 26.7801 17.93 27.1787C17.202 27.5774 16.344 27.7767 15.356 27.7767C14.1947 27.7767 13.1374 27.4734 12.184 26.8667C11.248 26.2601 10.5027 25.3934 9.94805 24.2667C9.41071 23.1227 9.14205 21.7967 9.14205 20.2887C9.14205 18.7807 9.41071 17.4634 9.94805 16.3367C10.5027 15.2101 11.248 14.3434 12.184 13.7367C13.1374 13.1301 14.1947 12.8267 15.356 12.8267ZM19.646 20.2887C19.646 19.3527 19.386 18.6161 18.866 18.0787C18.3634 17.5414 17.7394 17.2727 16.994 17.2727C16.2314 17.2727 15.5987 17.5414 15.096 18.0787C14.5934 18.5987 14.342 19.3354 14.342 20.2887C14.342 21.2247 14.5934 21.9701 15.096 22.5247C15.5987 23.0621 16.2314 23.3307 16.994 23.3307C17.7394 23.3307 18.3634 23.0621 18.866 22.5247C19.386 21.9874 19.646 21.2421 19.646 20.2887ZM37.7079 12.8787C39.3893 12.8787 40.7239 13.4421 41.7119 14.5687C42.6999 15.6781 43.1939 17.1861 43.1939 19.0927V27.5947H38.0979V19.7687C38.0979 18.9367 37.8813 18.2867 37.4479 17.8187C37.0146 17.3334 36.4339 17.0907 35.7059 17.0907C34.9433 17.0907 34.3453 17.3334 33.9119 17.8187C33.4786 18.2867 33.2619 18.9367 33.2619 19.7687V27.5947H28.1659V13.0087H33.2619V15.0887C33.7126 14.4301 34.3193 13.9014 35.0819 13.5027C35.8446 13.0867 36.7199 12.8787 37.7079 12.8787ZM49.0841 11.6567C48.1828 11.6567 47.4548 11.4141 46.9001 10.9287C46.3628 10.4261 46.0941 9.80206 46.0941 9.05673C46.0941 8.29406 46.3628 7.66139 46.9001 7.15873C47.4548 6.65606 48.1828 6.40473 49.0841 6.40473C49.9681 6.40473 50.6788 6.65606 51.2161 7.15873C51.7708 7.66139 52.0481 8.29406 52.0481 9.05673C52.0481 9.80206 51.7708 10.4261 51.2161 10.9287C50.6788 11.4141 49.9681 11.6567 49.0841 11.6567ZM51.6061 13.0087V27.5947H46.5101V13.0087H51.6061ZM63.6342 23.2527V27.5947H61.4242C57.6975 27.5947 55.8342 25.7487 55.8342 22.0567V17.2467H54.0402V13.0087H55.8342V9.47273H60.9562V13.0087H63.6082V17.2467H60.9562V22.1347C60.9562 22.5334 61.0429 22.8194 61.2162 22.9927C61.4069 23.1661 61.7189 23.2527 62.1522 23.2527H63.6342ZM65.6595 20.2887C65.6595 18.7807 65.9282 17.4634 66.4655 16.3367C67.0202 15.2101 67.7655 14.3434 68.7015 13.7367C69.6549 13.1301 70.7122 12.8267 71.8735 12.8267C72.8789 12.8267 73.7455 13.0261 74.4735 13.4247C75.2015 13.8234 75.7649 14.3607 76.1635 15.0367V13.0087H81.2595V27.5947H76.1635V25.5667C75.7649 26.2427 75.1929 26.7801 74.4475 27.1787C73.7195 27.5774 72.8615 27.7767 71.8735 27.7767C70.7122 27.7767 69.6549 27.4734 68.7015 26.8667C67.7655 26.2601 67.0202 25.3934 66.4655 24.2667C65.9282 23.1227 65.6595 21.7967 65.6595 20.2887ZM76.1635 20.2887C76.1635 19.3527 75.9035 18.6161 75.3835 18.0787C74.8809 17.5414 74.2569 17.2727 73.5115 17.2727C72.7489 17.2727 72.1162 17.5414 71.6135 18.0787C71.1109 18.5987 70.8595 19.3354 70.8595 20.2887C70.8595 21.2247 71.1109 21.9701 71.6135 22.5247C72.1162 23.0621 72.7489 23.3307 73.5115 23.3307C74.2569 23.3307 74.8809 23.0621 75.3835 22.5247C75.9035 21.9874 76.1635 21.2421 76.1635 20.2887ZM89.7794 15.0367C90.1781 14.3434 90.7414 13.8061 91.4694 13.4247C92.1974 13.0261 93.0554 12.8267 94.0434 12.8267C95.2048 12.8267 96.2534 13.1301 97.1894 13.7367C98.1428 14.3434 98.8881 15.2101 99.4254 16.3367C99.9801 17.4634 100.257 18.7807 100.257 20.2887C100.257 21.7967 99.9801 23.1227 99.4254 24.2667C98.8881 25.3934 98.1428 26.2601 97.1894 26.8667C96.2534 27.4734 95.2048 27.7767 94.0434 27.7767C93.0554 27.7767 92.1974 27.5861 91.4694 27.2047C90.7414 26.8061 90.1781 26.2601 89.7794 25.5667V27.5947H84.6834V8.35473H89.7794V15.0367ZM95.0834 20.2887C95.0834 19.3354 94.8234 18.5987 94.3034 18.0787C93.8008 17.5414 93.1768 17.2727 92.4314 17.2727C91.6861 17.2727 91.0534 17.5414 90.5334 18.0787C90.0308 18.6161 89.7794 19.3527 89.7794 20.2887C89.7794 21.2421 90.0308 21.9874 90.5334 22.5247C91.0534 23.0621 91.6861 23.3307 92.4314 23.3307C93.1768 23.3307 93.8008 23.0621 94.3034 22.5247C94.8234 21.9701 95.0834 21.2247 95.0834 20.2887ZM107.971 8.35473V27.5947H102.875V8.35473H107.971ZM125.329 20.1327C125.329 20.5314 125.303 20.9301 125.251 21.3287H115.605C115.657 22.1261 115.874 22.7241 116.255 23.1227C116.654 23.5041 117.157 23.6947 117.763 23.6947C118.613 23.6947 119.219 23.3134 119.583 22.5507H125.017C124.792 23.5561 124.35 24.4574 123.691 25.2547C123.05 26.0347 122.235 26.6501 121.247 27.1007C120.259 27.5514 119.167 27.7767 117.971 27.7767C116.533 27.7767 115.25 27.4734 114.123 26.8667C113.014 26.2601 112.139 25.3934 111.497 24.2667C110.873 23.1401 110.561 21.8141 110.561 20.2887C110.561 18.7634 110.873 17.4461 111.497 16.3367C112.121 15.2101 112.988 14.3434 114.097 13.7367C115.224 13.1301 116.515 12.8267 117.971 12.8267C119.41 12.8267 120.684 13.1214 121.793 13.7107C122.903 14.3001 123.769 15.1494 124.393 16.2587C125.017 17.3507 125.329 18.6421 125.329 20.1327ZM120.129 18.8587C120.129 18.2347 119.921 17.7494 119.505 17.4027C119.089 17.0387 118.569 16.8567 117.945 16.8567C117.321 16.8567 116.81 17.0301 116.411 17.3767C116.013 17.7061 115.753 18.2001 115.631 18.8587H120.129Z" fill="url(#paint0_linear)"/>
<path d="M145.252 14.7018C144.748 14.7018 144.296 14.6178 143.896 14.4497C143.496 14.2737 143.18 14.0337 142.948 13.7297C142.716 13.4177 142.588 13.0617 142.564 12.6617H143.692C143.724 12.9897 143.876 13.2577 144.148 13.4657C144.428 13.6737 144.792 13.7777 145.24 13.7777C145.656 13.7777 145.984 13.6857 146.224 13.5017C146.464 13.3177 146.584 13.0857 146.584 12.8057C146.584 12.5177 146.456 12.3057 146.2 12.1697C145.944 12.0257 145.548 11.8857 145.012 11.7497C144.524 11.6217 144.124 11.4937 143.812 11.3657C143.508 11.2297 143.244 11.0337 143.02 10.7777C142.804 10.5137 142.696 10.1697 142.696 9.74575C142.696 9.40975 142.796 9.10175 142.996 8.82175C143.196 8.54175 143.48 8.32175 143.848 8.16175C144.216 7.99375 144.636 7.90975 145.108 7.90975C145.836 7.90975 146.424 8.09375 146.872 8.46175C147.32 8.82975 147.56 9.33375 147.592 9.97375H146.5C146.476 9.62975 146.336 9.35375 146.08 9.14575C145.832 8.93775 145.496 8.83375 145.072 8.83375C144.68 8.83375 144.368 8.91775 144.136 9.08575C143.904 9.25375 143.788 9.47375 143.788 9.74575C143.788 9.96175 143.856 10.1417 143.992 10.2857C144.136 10.4217 144.312 10.5337 144.52 10.6217C144.736 10.7017 145.032 10.7937 145.408 10.8977C145.88 11.0257 146.264 11.1537 146.56 11.2817C146.856 11.4017 147.108 11.5857 147.316 11.8337C147.532 12.0817 147.644 12.4057 147.652 12.8057C147.652 13.1657 147.552 13.4897 147.352 13.7777C147.152 14.0657 146.868 14.2937 146.5 14.4617C146.14 14.6218 145.724 14.7018 145.252 14.7018ZM152.302 14.7018C151.686 14.7018 151.126 14.5618 150.622 14.2817C150.126 14.0017 149.734 13.6057 149.446 13.0938C149.166 12.5737 149.026 11.9737 149.026 11.2937C149.026 10.6217 149.17 10.0297 149.458 9.51775C149.754 8.99775 150.154 8.60175 150.658 8.32975C151.162 8.04975 151.726 7.90975 152.35 7.90975C152.974 7.90975 153.538 8.04975 154.042 8.32975C154.546 8.60175 154.942 8.99375 155.23 9.50575C155.526 10.0177 155.674 10.6137 155.674 11.2937C155.674 11.9737 155.522 12.5737 155.218 13.0938C154.922 13.6057 154.518 14.0017 154.006 14.2817C153.494 14.5618 152.926 14.7018 152.302 14.7018ZM152.302 13.7417C152.694 13.7417 153.062 13.6497 153.406 13.4657C153.75 13.2817 154.026 13.0057 154.234 12.6377C154.45 12.2697 154.558 11.8217 154.558 11.2937C154.558 10.7657 154.454 10.3177 154.246 9.94975C154.038 9.58175 153.766 9.30975 153.43 9.13375C153.094 8.94975 152.73 8.85775 152.338 8.85775C151.938 8.85775 151.57 8.94975 151.234 9.13375C150.906 9.30975 150.642 9.58175 150.442 9.94975C150.242 10.3177 150.142 10.7657 150.142 11.2937C150.142 11.8297 150.238 12.2817 150.43 12.6497C150.63 13.0177 150.894 13.2937 151.222 13.4777C151.55 13.6537 151.91 13.7417 152.302 13.7417ZM160.025 8.91775H158.645V14.5938H157.553V8.91775H156.701V8.01775H157.553V7.54975C157.553 6.81375 157.741 6.27775 158.117 5.94175C158.501 5.59775 159.113 5.42575 159.953 5.42575V6.33775C159.473 6.33775 159.133 6.43375 158.933 6.62575C158.741 6.80975 158.645 7.11775 158.645 7.54975V8.01775H160.025V8.91775ZM162.871 8.91775V12.7937C162.871 13.1137 162.939 13.3417 163.075 13.4777C163.211 13.6057 163.447 13.6697 163.783 13.6697H164.587V14.5938H163.603C162.995 14.5938 162.539 14.4537 162.235 14.1737C161.931 13.8937 161.779 13.4337 161.779 12.7937V8.91775H160.927V8.01775H161.779V6.36175H162.871V8.01775H164.587V8.91775H162.871ZM174.91 8.01775L172.858 14.5938H171.73L170.146 9.37375L168.562 14.5938H167.434L165.37 8.01775H166.486L167.998 13.5377L169.63 8.01775H170.746L172.342 13.5497L173.83 8.01775H174.91ZM175.825 11.2817C175.825 10.6097 175.961 10.0217 176.233 9.51775C176.505 9.00575 176.877 8.60975 177.349 8.32975C177.829 8.04975 178.361 7.90975 178.945 7.90975C179.521 7.90975 180.021 8.03375 180.445 8.28175C180.869 8.52975 181.185 8.84175 181.393 9.21775V8.01775H182.497V14.5938H181.393V13.3697C181.177 13.7537 180.853 14.0737 180.421 14.3297C179.997 14.5777 179.501 14.7018 178.933 14.7018C178.349 14.7018 177.821 14.5578 177.349 14.2697C176.877 13.9817 176.505 13.5777 176.233 13.0577C175.961 12.5377 175.825 11.9457 175.825 11.2817ZM181.393 11.2937C181.393 10.7977 181.293 10.3657 181.093 9.99775C180.893 9.62975 180.621 9.34975 180.277 9.15775C179.941 8.95775 179.569 8.85775 179.161 8.85775C178.753 8.85775 178.381 8.95375 178.045 9.14575C177.709 9.33775 177.441 9.61775 177.241 9.98575C177.041 10.3537 176.941 10.7857 176.941 11.2817C176.941 11.7857 177.041 12.2257 177.241 12.6017C177.441 12.9697 177.709 13.2537 178.045 13.4537C178.381 13.6457 178.753 13.7417 179.161 13.7417C179.569 13.7417 179.941 13.6457 180.277 13.4537C180.621 13.2537 180.893 12.9697 181.093 12.6017C181.293 12.2257 181.393 11.7897 181.393 11.2937ZM185.675 9.08575C185.867 8.70975 186.139 8.41775 186.491 8.20975C186.851 8.00175 187.287 7.89775 187.799 7.89775V9.02575H187.511C186.287 9.02575 185.675 9.68975 185.675 11.0177V14.5938H184.583V8.01775H185.675V9.08575ZM195.299 11.0537C195.299 11.2617 195.287 11.4817 195.263 11.7137H190.007C190.047 12.3617 190.267 12.8697 190.667 13.2377C191.075 13.5977 191.567 13.7777 192.143 13.7777C192.615 13.7777 193.007 13.6697 193.319 13.4537C193.639 13.2297 193.863 12.9337 193.991 12.5657H195.167C194.991 13.1977 194.639 13.7137 194.111 14.1137C193.583 14.5057 192.927 14.7018 192.143 14.7018C191.519 14.7018 190.959 14.5618 190.463 14.2817C189.975 14.0017 189.591 13.6057 189.311 13.0938C189.031 12.5737 188.891 11.9737 188.891 11.2937C188.891 10.6137 189.027 10.0177 189.299 9.50575C189.571 8.99375 189.951 8.60175 190.439 8.32975C190.935 8.04975 191.503 7.90975 192.143 7.90975C192.767 7.90975 193.319 8.04575 193.799 8.31775C194.279 8.58975 194.647 8.96575 194.903 9.44575C195.167 9.91775 195.299 10.4537 195.299 11.0537ZM194.171 10.8257C194.171 10.4097 194.079 10.0537 193.895 9.75775C193.711 9.45375 193.459 9.22575 193.139 9.07375C192.827 8.91375 192.479 8.83375 192.095 8.83375C191.543 8.83375 191.071 9.00975 190.679 9.36175C190.295 9.71375 190.075 10.2017 190.019 10.8257H194.171Z" fill="white"/>
<path d="M142.516 27.2817C142.516 26.6097 142.652 26.0217 142.924 25.5177C143.196 25.0057 143.568 24.6097 144.04 24.3297C144.52 24.0497 145.056 23.9097 145.648 23.9097C146.16 23.9097 146.636 24.0297 147.076 24.2697C147.516 24.5017 147.852 24.8097 148.084 25.1937V21.7137H149.188V30.5938H148.084V29.3577C147.868 29.7497 147.548 30.0737 147.124 30.3297C146.7 30.5777 146.204 30.7018 145.636 30.7018C145.052 30.7018 144.52 30.5578 144.04 30.2697C143.568 29.9817 143.196 29.5777 142.924 29.0577C142.652 28.5377 142.516 27.9457 142.516 27.2817ZM148.084 27.2937C148.084 26.7977 147.984 26.3657 147.784 25.9977C147.584 25.6297 147.312 25.3497 146.968 25.1577C146.632 24.9577 146.26 24.8577 145.852 24.8577C145.444 24.8577 145.072 24.9537 144.736 25.1457C144.4 25.3377 144.132 25.6177 143.932 25.9857C143.732 26.3537 143.632 26.7857 143.632 27.2817C143.632 27.7857 143.732 28.2257 143.932 28.6017C144.132 28.9697 144.4 29.2537 144.736 29.4537C145.072 29.6457 145.444 29.7417 145.852 29.7417C146.26 29.7417 146.632 29.6457 146.968 29.4537C147.312 29.2537 147.584 28.9697 147.784 28.6017C147.984 28.2257 148.084 27.7897 148.084 27.2937ZM157.273 27.0537C157.273 27.2617 157.261 27.4817 157.237 27.7137H151.981C152.021 28.3617 152.241 28.8697 152.641 29.2377C153.049 29.5977 153.541 29.7777 154.117 29.7777C154.589 29.7777 154.981 29.6697 155.293 29.4537C155.613 29.2297 155.837 28.9337 155.965 28.5657H157.141C156.965 29.1977 156.613 29.7137 156.085 30.1137C155.557 30.5057 154.901 30.7018 154.117 30.7018C153.493 30.7018 152.933 30.5618 152.437 30.2817C151.949 30.0017 151.565 29.6057 151.285 29.0938C151.005 28.5737 150.865 27.9737 150.865 27.2937C150.865 26.6137 151.001 26.0177 151.273 25.5057C151.545 24.9937 151.925 24.6017 152.413 24.3297C152.909 24.0497 153.477 23.9097 154.117 23.9097C154.741 23.9097 155.293 24.0457 155.773 24.3177C156.253 24.5897 156.621 24.9657 156.877 25.4457C157.141 25.9177 157.273 26.4537 157.273 27.0537ZM156.145 26.8257C156.145 26.4097 156.053 26.0537 155.869 25.7577C155.685 25.4537 155.433 25.2257 155.113 25.0737C154.801 24.9137 154.453 24.8337 154.069 24.8337C153.517 24.8337 153.045 25.0097 152.653 25.3617C152.269 25.7137 152.049 26.2017 151.993 26.8257H156.145ZM161.403 29.5857L163.443 24.0177H164.607L162.027 30.5938H160.755L158.175 24.0177H159.351L161.403 29.5857ZM171.921 27.0537C171.921 27.2617 171.909 27.4817 171.885 27.7137H166.629C166.669 28.3617 166.889 28.8697 167.289 29.2377C167.697 29.5977 168.189 29.7777 168.765 29.7777C169.237 29.7777 169.629 29.6697 169.941 29.4537C170.261 29.2297 170.485 28.9337 170.613 28.5657H171.789C171.613 29.1977 171.261 29.7137 170.733 30.1137C170.205 30.5057 169.549 30.7018 168.765 30.7018C168.141 30.7018 167.581 30.5618 167.085 30.2817C166.597 30.0017 166.213 29.6057 165.933 29.0938C165.653 28.5737 165.513 27.9737 165.513 27.2937C165.513 26.6137 165.649 26.0177 165.921 25.5057C166.193 24.9937 166.573 24.6017 167.061 24.3297C167.557 24.0497 168.125 23.9097 168.765 23.9097C169.389 23.9097 169.941 24.0457 170.421 24.3177C170.901 24.5897 171.269 24.9657 171.525 25.4457C171.789 25.9177 171.921 26.4537 171.921 27.0537ZM170.793 26.8257C170.793 26.4097 170.701 26.0537 170.517 25.7577C170.333 25.4537 170.081 25.2257 169.761 25.0737C169.449 24.9137 169.101 24.8337 168.717 24.8337C168.165 24.8337 167.693 25.0097 167.301 25.3617C166.917 25.7137 166.697 26.2017 166.641 26.8257H170.793ZM174.695 21.7137V30.5938H173.603V21.7137H174.695ZM179.664 30.7018C179.048 30.7018 178.488 30.5618 177.984 30.2817C177.488 30.0017 177.096 29.6057 176.808 29.0938C176.528 28.5737 176.388 27.9737 176.388 27.2937C176.388 26.6217 176.532 26.0297 176.82 25.5177C177.116 24.9977 177.516 24.6017 178.02 24.3297C178.524 24.0497 179.088 23.9097 179.712 23.9097C180.336 23.9097 180.9 24.0497 181.404 24.3297C181.908 24.6017 182.304 24.9937 182.592 25.5057C182.888 26.0177 183.036 26.6137 183.036 27.2937C183.036 27.9737 182.884 28.5737 182.58 29.0938C182.284 29.6057 181.88 30.0017 181.368 30.2817C180.856 30.5618 180.288 30.7018 179.664 30.7018ZM179.664 29.7417C180.056 29.7417 180.424 29.6497 180.768 29.4657C181.112 29.2817 181.388 29.0057 181.596 28.6377C181.812 28.2697 181.92 27.8217 181.92 27.2937C181.92 26.7657 181.816 26.3177 181.608 25.9497C181.4 25.5817 181.128 25.3097 180.792 25.1337C180.456 24.9497 180.092 24.8577 179.7 24.8577C179.3 24.8577 178.932 24.9497 178.596 25.1337C178.268 25.3097 178.004 25.5817 177.804 25.9497C177.604 26.3177 177.504 26.7657 177.504 27.2937C177.504 27.8297 177.6 28.2817 177.792 28.6497C177.992 29.0177 178.256 29.2937 178.584 29.4777C178.912 29.6537 179.272 29.7417 179.664 29.7417ZM185.804 25.2297C186.02 24.8537 186.34 24.5417 186.764 24.2937C187.196 24.0377 187.696 23.9097 188.264 23.9097C188.848 23.9097 189.376 24.0497 189.848 24.3297C190.328 24.6097 190.704 25.0057 190.976 25.5177C191.248 26.0217 191.384 26.6097 191.384 27.2817C191.384 27.9457 191.248 28.5377 190.976 29.0577C190.704 29.5777 190.328 29.9817 189.848 30.2697C189.376 30.5578 188.848 30.7018 188.264 30.7018C187.704 30.7018 187.208 30.5777 186.776 30.3297C186.352 30.0737 186.028 29.7577 185.804 29.3817V33.7138H184.712V24.0177H185.804V25.2297ZM190.268 27.2817C190.268 26.7857 190.168 26.3537 189.968 25.9857C189.768 25.6177 189.496 25.3377 189.152 25.1457C188.816 24.9537 188.444 24.8577 188.036 24.8577C187.636 24.8577 187.264 24.9577 186.92 25.1577C186.584 25.3497 186.312 25.6337 186.104 26.0097C185.904 26.3777 185.804 26.8057 185.804 27.2937C185.804 27.7897 185.904 28.2257 186.104 28.6017C186.312 28.9697 186.584 29.2537 186.92 29.4537C187.264 29.6457 187.636 29.7417 188.036 29.7417C188.444 29.7417 188.816 29.6457 189.152 29.4537C189.496 29.2537 189.768 28.9697 189.968 28.6017C190.168 28.2257 190.268 27.7857 190.268 27.2817ZM200.969 23.8977C201.481 23.8977 201.937 24.0057 202.337 24.2217C202.737 24.4297 203.053 24.7457 203.285 25.1697C203.517 25.5937 203.633 26.1097 203.633 26.7177V30.5938H202.553V26.8737C202.553 26.2177 202.389 25.7177 202.061 25.3737C201.741 25.0217 201.305 24.8457 200.753 24.8457C200.185 24.8457 199.733 25.0297 199.397 25.3977C199.061 25.7577 198.893 26.2817 198.893 26.9697V30.5938H197.813V26.8737C197.813 26.2177 197.649 25.7177 197.321 25.3737C197.001 25.0217 196.565 24.8457 196.013 24.8457C195.445 24.8457 194.993 25.0297 194.657 25.3977C194.321 25.7577 194.153 26.2817 194.153 26.9697V30.5938H193.061V24.0177H194.153V24.9657C194.369 24.6217 194.657 24.3577 195.017 24.1737C195.385 23.9897 195.789 23.8977 196.229 23.8977C196.781 23.8977 197.269 24.0217 197.693 24.2697C198.117 24.5177 198.433 24.8817 198.641 25.3617C198.825 24.8977 199.129 24.5377 199.553 24.2817C199.977 24.0257 200.449 23.8977 200.969 23.8977ZM211.664 27.0537C211.664 27.2617 211.652 27.4817 211.628 27.7137H206.372C206.412 28.3617 206.632 28.8697 207.032 29.2377C207.44 29.5977 207.932 29.7777 208.508 29.7777C208.98 29.7777 209.372 29.6697 209.684 29.4537C210.004 29.2297 210.228 28.9337 210.356 28.5657H211.532C211.356 29.1977 211.004 29.7137 210.476 30.1137C209.948 30.5057 209.292 30.7018 208.508 30.7018C207.884 30.7018 207.324 30.5618 206.828 30.2817C206.34 30.0017 205.956 29.6057 205.676 29.0938C205.396 28.5737 205.256 27.9737 205.256 27.2937C205.256 26.6137 205.392 26.0177 205.664 25.5057C205.936 24.9937 206.316 24.6017 206.804 24.3297C207.3 24.0497 207.868 23.9097 208.508 23.9097C209.132 23.9097 209.684 24.0457 210.164 24.3177C210.644 24.5897 211.012 24.9657 211.268 25.4457C211.532 25.9177 211.664 26.4537 211.664 27.0537ZM210.536 26.8257C210.536 26.4097 210.444 26.0537 210.26 25.7577C210.076 25.4537 209.824 25.2257 209.504 25.0737C209.192 24.9137 208.844 24.8337 208.46 24.8337C207.908 24.8337 207.436 25.0097 207.044 25.3617C206.66 25.7137 206.44 26.2017 206.384 26.8257H210.536ZM216.55 23.8977C217.35 23.8977 217.998 24.1417 218.494 24.6297C218.99 25.1097 219.238 25.8057 219.238 26.7177V30.5938H218.158V26.8737C218.158 26.2177 217.994 25.7177 217.666 25.3737C217.338 25.0217 216.89 24.8457 216.322 24.8457C215.746 24.8457 215.286 25.0257 214.942 25.3857C214.606 25.7457 214.438 26.2697 214.438 26.9577V30.5938H213.346V24.0177H214.438V24.9537C214.654 24.6177 214.946 24.3577 215.314 24.1737C215.69 23.9897 216.102 23.8977 216.55 23.8977ZM222.594 24.9177V28.7937C222.594 29.1137 222.662 29.3417 222.798 29.4777C222.934 29.6057 223.17 29.6697 223.506 29.6697H224.31V30.5938H223.326C222.718 30.5938 222.262 30.4537 221.958 30.1737C221.654 29.8937 221.502 29.4337 221.502 28.7937V24.9177H220.65V24.0177H221.502V22.3617H222.594V24.0177H224.31V24.9177H222.594Z" fill="white"/>
<rect opacity="0.2" x="138" width="2" height="39" transform="rotate(15 138 0)" fill="#C4C4C4"/>
<defs>
<linearGradient id="paint0_linear" x1="201.352" y1="-5.40364" x2="52.8302" y2="-82.4956" gradientUnits="userSpaceOnUse">
<stop stop-color="#A8E063"/>
<stop offset="1" stop-color="#56AB2F"/>
</linearGradient>
</defs>
</svg>
